# xmcd CD database file
#
# Track frame offsets:
#	182
#	12660
#	27160
#	37517
#	50250
#	57307
#	66725
#	78482
#	96422
#	106757
#	122997
#	132062
#	141927
#	155377
#	172817
#
# Disc length: 2500 seconds
#
# Revision: 1
# Processed by: cddbd v1.5.2PL0 Copyright (c) Steve Scherf et al.
# Submitted via: CDex 1.51
#
DISCID=c509c20f
DTITLE=Stara reka - Bile skaly - trampske pisnicky 1.
DYEAR=1995
DGENRE=Country
TTITLE0=Zeleny kruh
TTITLE1=Hvezda Loo
TTITLE2=Skaliste hory
TTITLE3=Soumrak
TTITLE4=Taja
TTITLE5=Stara reka
TTITLE6=Jezdili sme ve dvojici
TTITLE7=Vyprahla cesta
TTITLE8=Tulak
TTITLE9=Wigwam
TTITLE10=Bila smrt
TTITLE11=Modry kanon
TTITLE12=Oklahoma hill
TTITLE13=Posta
TTITLE14=Zpev o trech nesmrtelnych mrtvych z Fort Adamsonu
EXTD=YEAR: 1995
EXTT0=
EXTT1=
EXTT2=
EXTT3=
EXTT4=
EXTT5=
EXTT6=
EXTT7=
EXTT8=
EXTT9=
EXTT10=
EXTT11=
EXTT12=
EXTT13=
EXTT14=
PLAYORDER=
